<mxfile host="app.diagrams.net" agent="Mozilla/5.0 (Windows NT 10.0; Win64; x64) AppleWebKit/537.36 (KHTML, like Gecko) Chrome/133.0.0.0 Safari/537.36 OPR/118.0.0.0" version="27.0.4">
  <diagram name="PÃ¡gina-1" id="dBTSzv81Snn0_r7zAIJG">
    <mxGraphModel grid="1" page="1" gridSize="10" guides="1" tooltips="1" connect="1" arrows="1" fold="1" pageScale="1" pageWidth="827" pageHeight="1169" math="0" shadow="0">
      <root>
        <mxCell id="0" />
        <mxCell id="1" parent="0" />
        <mxCell id="qLu4HTbHe-qSzmMp4FGI-1" value="TASK" style="rounded=0;whiteSpace=wrap;html=1;" vertex="1" parent="1">
          <mxGeometry x="400" y="320" width="39" height="40" as="geometry" />
        </mxCell>
        <mxCell id="qLu4HTbHe-qSzmMp4FGI-2" value="TAG" style="rounded=0;whiteSpace=wrap;html=1;" vertex="1" parent="1">
          <mxGeometry x="560" y="440" width="80" height="40" as="geometry" />
        </mxCell>
        <mxCell id="qLu4HTbHe-qSzmMp4FGI-3" value="CATEGORY" style="rounded=0;whiteSpace=wrap;html=1;" vertex="1" parent="1">
          <mxGeometry x="192.5" y="435" width="85" height="45" as="geometry" />
        </mxCell>
        <mxCell id="qLu4HTbHe-qSzmMp4FGI-5" value="USER" style="rounded=0;whiteSpace=wrap;html=1;" vertex="1" parent="1">
          <mxGeometry x="190" y="200" width="90" height="40" as="geometry" />
        </mxCell>
        <mxCell id="qLu4HTbHe-qSzmMp4FGI-6" value="&lt;font style=&quot;font-size: 10px;&quot;&gt;IS CREATED&lt;/font&gt;" style="rhombus;whiteSpace=wrap;html=1;" vertex="1" parent="1">
          <mxGeometry x="310" y="260" width="60" height="60" as="geometry" />
        </mxCell>
        <mxCell id="qLu4HTbHe-qSzmMp4FGI-7" value="&lt;font style=&quot;font-size: 10px;&quot;&gt;HAS&lt;/font&gt;" style="rhombus;whiteSpace=wrap;html=1;" vertex="1" parent="1">
          <mxGeometry x="310" y="380" width="60" height="60" as="geometry" />
        </mxCell>
        <mxCell id="qLu4HTbHe-qSzmMp4FGI-8" value="&lt;div&gt;&lt;font style=&quot;font-size: 10px;&quot;&gt;e&lt;/font&gt;&lt;/div&gt;&lt;div&gt;&lt;font style=&quot;font-size: 10px;&quot;&gt;--&lt;/font&gt;&lt;/div&gt;&lt;font style=&quot;font-size: 10px;&quot;&gt;HAS&lt;/font&gt;" style="rhombus;whiteSpace=wrap;html=1;" vertex="1" parent="1">
          <mxGeometry x="480" y="250" width="60" height="60" as="geometry" />
        </mxCell>
        <mxCell id="qLu4HTbHe-qSzmMp4FGI-9" value="&lt;font style=&quot;font-size: 10px;&quot;&gt;HAS&lt;/font&gt;" style="rhombus;whiteSpace=wrap;html=1;" vertex="1" parent="1">
          <mxGeometry x="460" y="380" width="60" height="60" as="geometry" />
        </mxCell>
        <mxCell id="qLu4HTbHe-qSzmMp4FGI-10" value="" style="endArrow=none;html=1;rounded=0;exitX=1;exitY=0;exitDx=0;exitDy=0;entryX=0;entryY=1;entryDx=0;entryDy=0;" edge="1" parent="1" source="qLu4HTbHe-qSzmMp4FGI-7" target="qLu4HTbHe-qSzmMp4FGI-1">
          <mxGeometry width="50" height="50" relative="1" as="geometry">
            <mxPoint x="430" y="400" as="sourcePoint" />
            <mxPoint x="480" y="350" as="targetPoint" />
          </mxGeometry>
        </mxCell>
        <mxCell id="qLu4HTbHe-qSzmMp4FGI-11" value="" style="endArrow=none;html=1;rounded=0;exitX=1;exitY=0;exitDx=0;exitDy=0;" edge="1" parent="1" target="qLu4HTbHe-qSzmMp4FGI-8">
          <mxGeometry width="50" height="50" relative="1" as="geometry">
            <mxPoint x="440" y="320" as="sourcePoint" />
            <mxPoint x="485" y="285" as="targetPoint" />
          </mxGeometry>
        </mxCell>
        <mxCell id="qLu4HTbHe-qSzmMp4FGI-12" value="" style="endArrow=none;html=1;rounded=0;exitX=1;exitY=0;exitDx=0;exitDy=0;entryX=0;entryY=1;entryDx=0;entryDy=0;entryPerimeter=0;" edge="1" parent="1" source="qLu4HTbHe-qSzmMp4FGI-8" target="lBLHn1LAzDYd-706KHIy-11">
          <mxGeometry width="50" height="50" relative="1" as="geometry">
            <mxPoint x="450" y="330" as="sourcePoint" />
            <mxPoint x="560" y="240" as="targetPoint" />
          </mxGeometry>
        </mxCell>
        <mxCell id="qLu4HTbHe-qSzmMp4FGI-13" value="" style="endArrow=none;html=1;rounded=0;exitX=0;exitY=0;exitDx=0;exitDy=0;entryX=1;entryY=1;entryDx=0;entryDy=0;" edge="1" parent="1" source="qLu4HTbHe-qSzmMp4FGI-1" target="qLu4HTbHe-qSzmMp4FGI-6">
          <mxGeometry width="50" height="50" relative="1" as="geometry">
            <mxPoint x="365" y="405" as="sourcePoint" />
            <mxPoint x="410" y="370" as="targetPoint" />
          </mxGeometry>
        </mxCell>
        <mxCell id="qLu4HTbHe-qSzmMp4FGI-14" value="" style="endArrow=none;html=1;rounded=0;exitX=0;exitY=0;exitDx=0;exitDy=0;entryX=1;entryY=1;entryDx=0;entryDy=0;" edge="1" parent="1" source="qLu4HTbHe-qSzmMp4FGI-6" target="qLu4HTbHe-qSzmMp4FGI-5">
          <mxGeometry width="50" height="50" relative="1" as="geometry">
            <mxPoint x="410" y="330" as="sourcePoint" />
            <mxPoint x="365" y="315" as="targetPoint" />
          </mxGeometry>
        </mxCell>
        <mxCell id="qLu4HTbHe-qSzmMp4FGI-15" value="" style="endArrow=none;html=1;rounded=0;exitX=0.5;exitY=0;exitDx=0;exitDy=0;entryX=1;entryY=1;entryDx=0;entryDy=0;" edge="1" parent="1" source="qLu4HTbHe-qSzmMp4FGI-9" target="qLu4HTbHe-qSzmMp4FGI-1">
          <mxGeometry width="50" height="50" relative="1" as="geometry">
            <mxPoint x="525" y="375" as="sourcePoint" />
            <mxPoint x="480" y="360" as="targetPoint" />
          </mxGeometry>
        </mxCell>
        <mxCell id="qLu4HTbHe-qSzmMp4FGI-16" value="" style="endArrow=none;html=1;rounded=0;exitX=0;exitY=0;exitDx=0;exitDy=0;entryX=1;entryY=0.5;entryDx=0;entryDy=0;" edge="1" parent="1" source="qLu4HTbHe-qSzmMp4FGI-2" target="qLu4HTbHe-qSzmMp4FGI-9">
          <mxGeometry width="50" height="50" relative="1" as="geometry">
            <mxPoint x="500" y="390" as="sourcePoint" />
            <mxPoint x="449" y="370" as="targetPoint" />
          </mxGeometry>
        </mxCell>
        <mxCell id="qLu4HTbHe-qSzmMp4FGI-17" value="" style="endArrow=none;html=1;rounded=0;exitX=1;exitY=0;exitDx=0;exitDy=0;entryX=0;entryY=1;entryDx=0;entryDy=0;" edge="1" parent="1" source="qLu4HTbHe-qSzmMp4FGI-3" target="qLu4HTbHe-qSzmMp4FGI-7">
          <mxGeometry width="50" height="50" relative="1" as="geometry">
            <mxPoint x="365" y="405" as="sourcePoint" />
            <mxPoint x="410" y="370" as="targetPoint" />
          </mxGeometry>
        </mxCell>
        <mxCell id="qLu4HTbHe-qSzmMp4FGI-18" value="name" style="ellipse;whiteSpace=wrap;html=1;" vertex="1" parent="1">
          <mxGeometry x="130" y="150" width="60" height="30" as="geometry" />
        </mxCell>
        <mxCell id="qLu4HTbHe-qSzmMp4FGI-19" value="email" style="ellipse;whiteSpace=wrap;html=1;" vertex="1" parent="1">
          <mxGeometry x="90" y="180" width="60" height="40" as="geometry" />
        </mxCell>
        <mxCell id="qLu4HTbHe-qSzmMp4FGI-20" value="password" style="ellipse;whiteSpace=wrap;html=1;" vertex="1" parent="1">
          <mxGeometry x="205" y="140" width="60" height="40" as="geometry" />
        </mxCell>
        <mxCell id="qLu4HTbHe-qSzmMp4FGI-22" value="id" style="ellipse;whiteSpace=wrap;html=1;" vertex="1" parent="1">
          <mxGeometry x="135" y="230" width="50" height="30" as="geometry" />
        </mxCell>
        <mxCell id="qLu4HTbHe-qSzmMp4FGI-23" value="id" style="ellipse;whiteSpace=wrap;html=1;" vertex="1" parent="1">
          <mxGeometry x="650" y="145" width="50" height="30" as="geometry" />
        </mxCell>
        <mxCell id="qLu4HTbHe-qSzmMp4FGI-24" value="id" style="ellipse;whiteSpace=wrap;html=1;" vertex="1" parent="1">
          <mxGeometry x="142.5" y="490" width="50" height="30" as="geometry" />
        </mxCell>
        <mxCell id="qLu4HTbHe-qSzmMp4FGI-25" value="Title" style="ellipse;whiteSpace=wrap;html=1;" vertex="1" parent="1">
          <mxGeometry x="670" y="200" width="60" height="30" as="geometry" />
        </mxCell>
        <mxCell id="qLu4HTbHe-qSzmMp4FGI-26" value="Title" style="ellipse;whiteSpace=wrap;html=1;" vertex="1" parent="1">
          <mxGeometry x="110" y="435" width="60" height="30" as="geometry" />
        </mxCell>
        <mxCell id="qLu4HTbHe-qSzmMp4FGI-27" value="Title" style="ellipse;whiteSpace=wrap;html=1;" vertex="1" parent="1">
          <mxGeometry x="650" y="470" width="60" height="30" as="geometry" />
        </mxCell>
        <mxCell id="qLu4HTbHe-qSzmMp4FGI-28" value="0,N" style="text;html=1;align=center;verticalAlign=middle;resizable=0;points=[];autosize=1;strokeColor=none;fillColor=none;" vertex="1" parent="1">
          <mxGeometry x="260" y="408" width="40" height="30" as="geometry" />
        </mxCell>
        <mxCell id="qLu4HTbHe-qSzmMp4FGI-29" value="0,N" style="text;html=1;align=center;verticalAlign=middle;resizable=0;points=[];autosize=1;strokeColor=none;fillColor=none;" vertex="1" parent="1">
          <mxGeometry x="350" y="340" width="40" height="30" as="geometry" />
        </mxCell>
        <mxCell id="lBLHn1LAzDYd-706KHIy-1" value="0,N" style="text;html=1;align=center;verticalAlign=middle;resizable=0;points=[];autosize=1;strokeColor=none;fillColor=none;" vertex="1" parent="1">
          <mxGeometry x="440" y="330" width="40" height="30" as="geometry" />
        </mxCell>
        <mxCell id="lBLHn1LAzDYd-706KHIy-2" value="0,N" style="text;html=1;align=center;verticalAlign=middle;resizable=0;points=[];autosize=1;strokeColor=none;fillColor=none;" vertex="1" parent="1">
          <mxGeometry x="550" y="405" width="40" height="30" as="geometry" />
        </mxCell>
        <mxCell id="lBLHn1LAzDYd-706KHIy-3" value="0,N" style="text;html=1;align=center;verticalAlign=middle;resizable=0;points=[];autosize=1;strokeColor=none;fillColor=none;" vertex="1" parent="1">
          <mxGeometry x="520" y="210" width="40" height="30" as="geometry" />
        </mxCell>
        <mxCell id="lBLHn1LAzDYd-706KHIy-4" value="1,1" style="text;html=1;align=center;verticalAlign=middle;resizable=0;points=[];autosize=1;strokeColor=none;fillColor=none;" vertex="1" parent="1">
          <mxGeometry x="420" y="290" width="40" height="30" as="geometry" />
        </mxCell>
        <mxCell id="lBLHn1LAzDYd-706KHIy-5" value="0,N" style="text;html=1;align=center;verticalAlign=middle;resizable=0;points=[];autosize=1;strokeColor=none;fillColor=none;" vertex="1" parent="1">
          <mxGeometry x="374" y="280" width="40" height="30" as="geometry" />
        </mxCell>
        <mxCell id="lBLHn1LAzDYd-706KHIy-6" value="1,1" style="text;html=1;align=center;verticalAlign=middle;resizable=0;points=[];autosize=1;strokeColor=none;fillColor=none;" vertex="1" parent="1">
          <mxGeometry x="280" y="220" width="40" height="30" as="geometry" />
        </mxCell>
        <mxCell id="lBLHn1LAzDYd-706KHIy-7" value="N:M" style="text;html=1;align=center;verticalAlign=middle;resizable=0;points=[];autosize=1;strokeColor=none;fillColor=none;" vertex="1" parent="1">
          <mxGeometry x="285" y="360" width="50" height="30" as="geometry" />
        </mxCell>
        <mxCell id="lBLHn1LAzDYd-706KHIy-8" value="1:N" style="text;html=1;align=center;verticalAlign=middle;resizable=0;points=[];autosize=1;strokeColor=none;fillColor=none;" vertex="1" parent="1">
          <mxGeometry x="340" y="230" width="40" height="30" as="geometry" />
        </mxCell>
        <mxCell id="lBLHn1LAzDYd-706KHIy-9" value="1:N" style="text;html=1;align=center;verticalAlign=middle;resizable=0;points=[];autosize=1;strokeColor=none;fillColor=none;" vertex="1" parent="1">
          <mxGeometry x="460" y="240" width="40" height="30" as="geometry" />
        </mxCell>
        <mxCell id="lBLHn1LAzDYd-706KHIy-10" value="N:M" style="text;html=1;align=center;verticalAlign=middle;resizable=0;points=[];autosize=1;strokeColor=none;fillColor=none;" vertex="1" parent="1">
          <mxGeometry x="500" y="370" width="50" height="30" as="geometry" />
        </mxCell>
        <mxCell id="lBLHn1LAzDYd-706KHIy-11" value="" style="verticalLabelPosition=bottom;verticalAlign=top;html=1;shape=mxgraph.basic.frame;dx=10;whiteSpace=wrap;" vertex="1" parent="1">
          <mxGeometry x="560" y="190" width="90" height="50" as="geometry" />
        </mxCell>
        <mxCell id="lBLHn1LAzDYd-706KHIy-12" value="&lt;span style=&quot;text-wrap-mode: wrap;&quot;&gt;SUBTASK&lt;/span&gt;" style="text;html=1;align=center;verticalAlign=middle;resizable=0;points=[];autosize=1;strokeColor=none;fillColor=none;" vertex="1" parent="1">
          <mxGeometry x="565" y="200" width="80" height="30" as="geometry" />
        </mxCell>
      </root>
    </mxGraphModel>
  </diagram>
</mxfile>
